{"title":"Plasterhead 2006 DVDRip Xvid BigPerm LKRG","uid":7154792,"size":746161848,"categoryP":"video","categoryS":"movies","magnet":"?xt=urn:btih:aee9b0b3a117d3604120f060c5b75c06f1a3285c&amp;dn=Plasterhead+2006+DVDRip+Xvid+BigPerm+LKRG&amp;tr=udp%3A%2F%2Ftracker.openbittorrent.com%3A80&amp;tr=udp%3A%2F%2Fopen.demonii.com%3A1337&amp;tr=udp%3A%2F%2Ftracker.coppersurfer.tk%3A6969&amp;tr=udp%3A%2F%2Fexodus.desync.com%3A6969","seeders":0,"leechers":1,"uploader":".BONE.","files":2,"time":1333422471,"description":"PLOT\n\nEvery town has a local legend. Not all of them are deadly. Headed to Miami to celebrate winter break, a group of four\ncollege students from New Jersey take a detour into the bowels of rural West Virginia. There, the unwitting\nfriends uncover a grotesque legend that stains the fabric of Rolling Glen, a sleepy backwoods town...\n\n\nEncoded By .......: BigPerm\nRuntime ..........: 1h 33mn\nFile Size ........: 712 MB\nResolution .......: 656 x 352 &lt;a href=&quot;\nhttp://www.imdb.com/title/tt0887770/&quot; rel=&quot;nofollow&quot; target=&quot;_NEW&quot;&gt;\nhttp://www.imdb.com/title/tt0887770/&lt;/a&gt;\nGenre ............: Horror,Mystery,Thriller\nLanguage .........: English\nSubtitles ........: None\nFormat : AVI\nFormat/Info : Audio Video Interleave\nFile size : 712 MiB\nDuration : 1h 33mn\nOverall bit rate : 1 060 Kbps\nWriting application : VirtualDubMod 1.5.10.2 (build 2540/release)\nWriting library : VirtualDubMod build 2540/release\n\nVideo\nID : 0\nFormat : MPEG-4 Visual\nFormat profile : Advanced Simple@L5\nFormat settings, BVOP : Yes\nFormat settings, QPel : No\nFormat settings, GMC : No warppoints\nFormat settings, Matrix : Default (H.263)\nMuxing mode : Packed bitstream\nCodec ID : XVID\nCodec ID/Hint : XviD\nDuration : 1h 33mn\nBit rate : 824 Kbps\nWidth : 656 pixels\nHeight : 352 pixels\nDisplay aspect ratio : 1.864\nFrame rate : 29.970 fps\nColor space : YUV\nChroma subsampling : 4:2:0\nBit depth : 8 bits\nScan type : Progressive\nCompression mode : Lossy\nBits/(Pixel*Frame) : 0.119\nStream size : 553 MiB (78%)\nWriting library : XviD 1.2.1 (UTC 2008-12-04)\n\nAudio\nID : 1\nFormat : AC-3\nFormat/Info : Audio Coding 3\nMode extension : CM (complete main)\nCodec ID : 2000\nDuration : 1h 33mn\nBit rate mode : Constant\nBit rate : 224 Kbps\nChannel(s) : 2 channels\nChannel positions : Front: L R\nSampling rate : 48.0 KHz\nBit depth : 16 bits\nCompression mode : Lossy\nStream size : 150 MiB (21%)\nAlignment : Split accross interleaves\nInterleave, duration : 33 ms (1.00 video frame)\nInterleave, preload duration : 500 ms\n","torrent":{"xt":"urn:btih:aee9b0b3a117d3604120f060c5b75c06f1a3285c","amp;dn":"Plasterhead+2006+DVDRip+Xvid+BigPerm+LKRG","amp;tr":["udp%3A%2F%2Ftracker.openbittorrent.com%3A80","udp%3A%2F%2Fopen.demonii.com%3A1337","udp%3A%2F%2Ftracker.coppersurfer.tk%3A6969","udp%3A%2F%2Fexodus.desync.com%3A6969"],"infoHash":"aee9b0b3a117d3604120f060c5b75c06f1a3285c","infoHashBuffer":{"type":"Buffer","data":[174,233,176,179,161,23,211,96,65,32,240,96,197,183,92,6,241,163,40,92]},"announce":[],"urlList":[]}}